<svg xmlns="http://www.w3.org/2000/svg" viewBox="0 0 64 64">
  <defs>
    <linearGradient id="p1" x1="0%" y1="0%" x2="100%" y2="100%"><stop offset="0%" stop-color="#F06292"/><stop offset="100%" stop-color="#F8BBD9"/></linearGradient>
  </defs>
  <path d="M32,6 C17,6 6,17 6,32 C6,47 17,58 32,58 C37,58 42,54 42,49 C42,47 41,45 40,44 C39,42 38,40 38,38 C38,34 41,31 45,31 C50,31 58,35 58,32 C58,17 47,6 32,6 Z" fill="url(#p1)"/>
  <circle cx="18" cy="24" r="5" fill="#FF5252"/>
  <circle cx="28" cy="14" r="5" fill="#FFEB3B"/>
  <circle cx="40" cy="16" r="5" fill="#4CAF50"/>
  <circle cx="46" cy="26" r="4" fill="#2196F3"/>
  <circle cx="42" cy="38" r="5" fill="#FF9800"/>
  <circle cx="18" cy="24" r="2" fill="#FFF" opacity="0.4"/>
  <circle cx="28" cy="14" r="2" fill="#FFF" opacity="0.4"/>
</svg>
