<svg xmlns="http://www.w3.org/2000/svg" viewBox="0 0 64 64">
  <defs>
    <linearGradient id="br1" x1="0%" y1="0%" x2="100%" y2="100%"><stop offset="0%" stop-color="#C62828"/><stop offset="100%" stop-color="#EF9A9A"/></linearGradient>
    <linearGradient id="br2" x1="0%" y1="0%" x2="100%" y2="100%"><stop offset="0%" stop-color="#AD1457"/><stop offset="100%" stop-color="#F48FB1"/></linearGradient>
  </defs>
  <path d="M32,52 L32,36 C26,36 16,32 14,24 C12,16 18,10 24,10 C24,10 22,6 28,6 C32,6 34,8 34,10 C36,8 40,8 42,10 C46,10 50,14 50,20 C52,26 48,32 42,34 C42,36 40,40 38,42 L38,52 Z" fill="url(#br1)"/>
  <path d="M32,52 L32,36 C26,36 20,30 20,24 C20,18 24,14 28,12" fill="url(#br2)" opacity="0.6"/>
  <circle cx="20" cy="20" r="4" fill="#FFF" opacity="0.3"/>
  <circle cx="42" cy="18" r="4" fill="#FFF" opacity="0.3"/>
  <path d="M24,28 C26,26 30,28 32,26 C34,24 38,26 40,24" fill="none" stroke="#FFF" stroke-width="2" opacity="0.5"/>
  <path d="M22,36 C22,38 26,40 32,40" fill="none" stroke="#FFF" stroke-width="1.5" opacity="0.4"/>
  <circle cx="32" cy="8" r="4" fill="#FF8A80"/>
</svg>
