<svg xmlns="http://www.w3.org/2000/svg" viewBox="0 0 64 64">
  <defs>
    <linearGradient id="b1" x1="0%" y1="0%" x2="100%" y2="100%"><stop offset="0%" stop-color="#7B1FA2"/><stop offset="100%" stop-color="#CE93D8"/></linearGradient>
    <linearGradient id="b2" x1="0%" y1="0%" x2="100%" y2="100%"><stop offset="0%" stop-color="#4A148C"/><stop offset="100%" stop-color="#9C27B0"/></linearGradient>
  </defs>
  <path d="M8,10 C8,10 20,8 32,14 L32,56 C32,56 20,50 8,52 Z" fill="url(#b1)"/>
  <path d="M56,10 C56,10 44,8 32,14 L32,56 C32,56 44,50 56,52 Z" fill="url(#b2)"/>
  <line x1="32" y1="14" x2="32" y2="56" stroke="#FFF" stroke-width="2" opacity="0.6"/>
  <line x1="14" y1="24" x2="28" y2="22" stroke="#FFF" stroke-width="1.5" opacity="0.6"/>
  <line x1="14" y1="30" x2="28" y2="28" stroke="#FFF" stroke-width="1.5" opacity="0.6"/>
  <line x1="14" y1="36" x2="28" y2="34" stroke="#FFF" stroke-width="1.5" opacity="0.6"/>
  <line x1="36" y1="22" x2="50" y2="24" stroke="#FFF" stroke-width="1.5" opacity="0.6"/>
  <line x1="36" y1="28" x2="50" y2="30" stroke="#FFF" stroke-width="1.5" opacity="0.6"/>
  <line x1="36" y1="34" x2="50" y2="36" stroke="#FFF" stroke-width="1.5" opacity="0.6"/>
  <path d="M8,52 C8,52 4,52 4,56 L60,56 C60,52 56,52 56,52" fill="#4A148C"/>
</svg>
