<svg xmlns="http://www.w3.org/2000/svg" viewBox="0 0 64 64">
  <defs>
    <linearGradient id="f1" x1="0%" y1="0%" x2="100%" y2="100%"><stop offset="0%" stop-color="#1565C0"/><stop offset="100%" stop-color="#64B5F6"/></linearGradient>
    <linearGradient id="f2" x1="0%" y1="0%" x2="100%" y2="100%"><stop offset="0%" stop-color="#00838F"/><stop offset="100%" stop-color="#80DEEA"/></linearGradient>
  </defs>
  <rect x="24" y="6" width="16" height="4" rx="2" fill="#90CAF9"/>
  <rect x="28" y="8" width="8" height="14" rx="1" fill="url(#f1)"/>
  <path d="M22,22 L10,50 C9,52 10,56 14,56 L50,56 C54,56 55,52 54,50 L42,22 Z" fill="url(#f2)" opacity="0.85"/>
  <path d="M22,22 L10,50 C9,52 10,56 14,56 L32,56 Z" fill="url(#f1)" opacity="0.5"/>
  <ellipse cx="32" cy="48" rx="14" ry="6" fill="#E3F2FD" opacity="0.5"/>
  <circle cx="22" cy="40" r="4" fill="#FFF176" opacity="0.8"/>
  <circle cx="36" cy="44" r="3" fill="#80DEEA" opacity="0.9"/>
  <circle cx="42" cy="36" r="2.5" fill="#FFF" opacity="0.7"/>
  <circle cx="26" cy="48" r="2" fill="#B3E5FC" opacity="0.8"/>
</svg>
