<svg xmlns="http://www.w3.org/2000/svg" viewBox="0 0 64 64">
  <defs>
    <linearGradient id="hg1" x1="0%" y1="0%" x2="100%" y2="100%">
      <stop offset="0%" style="stop-color:#FF6B35;stop-opacity:1"/>
      <stop offset="100%" style="stop-color:#F7C59F;stop-opacity:1"/>
    </linearGradient>
    <linearGradient id="hg2" x1="0%" y1="0%" x2="100%" y2="100%">
      <stop offset="0%" style="stop-color:#E84393;stop-opacity:1"/>
      <stop offset="100%" style="stop-color:#FF6B9D;stop-opacity:1"/>
    </linearGradient>
  </defs>
  <polygon points="32,6 4,30 10,30 10,58 26,58 26,40 38,40 38,58 54,58 54,30 60,30" fill="url(#hg1)"/>
  <polygon points="32,6 4,30 10,30 10,36 32,16 54,36 54,30 60,30" fill="url(#hg2)" opacity="0.7"/>
  <rect x="26" y="40" width="12" height="18" rx="2" fill="#7B2D8B"/>
  <rect x="39" y="34" width="12" height="8" rx="1" fill="#FFF" opacity="0.4"/>
  <rect x="13" y="34" width="12" height="8" rx="1" fill="#FFF" opacity="0.4"/>
</svg>
