<svg xmlns="http://www.w3.org/2000/svg" viewBox="0 0 64 64" fill="none">
  <rect width="64" height="64" rx="14" fill="none"/>
  <!-- Feuille grande -->
  <path d="M32 8 Q54 8 54 32 Q54 52 32 56 Q16 50 16 32 Q16 8 32 8Z" fill="#16A34A"/>
  <path d="M32 8 Q32 32 32 56" stroke="#166534" stroke-width="2.5" stroke-linecap="round"/>
  <path d="M22 20 Q30 26 32 32" stroke="#166534" stroke-width="1.5" stroke-linecap="round"/>
  <path d="M44 20 Q36 26 32 32" stroke="#166534" stroke-width="1.5" stroke-linecap="round"/>
  <!-- Engrenage -->
  <circle cx="14" cy="20" r="10" fill="none" stroke="#0369A1" stroke-width="3"/>
  <circle cx="14" cy="20" r="4" fill="#0369A1"/>
  <rect x="12" y="8" width="4" height="4" rx="1" fill="#0369A1"/>
  <rect x="12" y="28" width="4" height="4" rx="1" fill="#0369A1"/>
  <rect x="2" y="18" width="4" height="4" rx="1" fill="#0369A1"/>
  <rect x="22" y="18" width="4" height="4" rx="1" fill="#0369A1"/>
</svg>