<svg xmlns="http://www.w3.org/2000/svg" viewBox="0 0 64 64">
  <defs>
    <linearGradient id="hl1" x1="0%" y1="0%" x2="100%" y2="100%"><stop offset="0%" stop-color="#880E4F"/><stop offset="100%" stop-color="#F48FB1"/></linearGradient>
  </defs>
  <rect x="6" y="6" width="52" height="52" rx="8" fill="#FCE4EC"/>
  <rect x="6" y="6" width="52" height="52" rx="8" fill="none" stroke="#F06292" stroke-width="1.5"/>
  <path d="M32,18 C28,14 20,14 20,22 C20,30 32,38 32,38 C32,38 44,30 44,22 C44,14 36,14 32,18 Z" fill="url(#hl1)"/>
  <polyline points="8,44 18,44 22,34 26,50 30,38 34,44 38,44 42,36 46,44 56,44" fill="none" stroke="#E91E63" stroke-width="2.5" stroke-linecap="round" stroke-linejoin="round"/>
</svg>
