<svg xmlns="http://www.w3.org/2000/svg" viewBox="0 0 64 64">
  <defs>
    <linearGradient id="gMain" x1="0%" y1="0%" x2="100%" y2="100%">
      <stop offset="0%" stop-color="#0EA5E9"/>
      <stop offset="100%" stop-color="#0369A1"/>
    </linearGradient>
    <linearGradient id="gLight" x1="0%" y1="0%" x2="100%" y2="100%">
      <stop offset="0%" stop-color="#38BDF8"/>
      <stop offset="100%" stop-color="#0284C7"/>
    </linearGradient>
  </defs>
  <!-- Globe principal -->
  <circle cx="32" cy="32" r="26" fill="url(#gMain)"/>
  <!-- Méridiens (ellipses verticales) -->
  <ellipse cx="32" cy="32" rx="12" ry="26" fill="none" stroke="#BAE6FD" stroke-width="1.4" opacity="0.85"/>
  <ellipse cx="32" cy="32" rx="22" ry="26" fill="none" stroke="#BAE6FD" stroke-width="1" opacity="0.55"/>
  <!-- Parallèles (ellipses horizontales) -->
  <ellipse cx="32" cy="32" rx="26" ry="10" fill="none" stroke="#BAE6FD" stroke-width="1.3" opacity="0.8"/>
  <ellipse cx="32" cy="32" rx="26" ry="20" fill="none" stroke="#BAE6FD" stroke-width="1" opacity="0.55"/>
  <!-- Continents stylisés (blanc translucide) -->
  <path d="M14,22 C18,20 24,24 30,22 C34,20 40,24 48,22 C50,24 48,28 44,28 C40,28 36,26 32,28 C28,30 22,26 18,28 C16,26 14,24 14,22 Z" fill="#FFFFFF" opacity="0.55"/>
  <path d="M12,38 C18,36 26,42 32,38 C38,36 46,40 52,38 C50,42 46,46 40,44 C34,44 28,48 22,44 C18,42 14,40 12,38 Z" fill="#FFFFFF" opacity="0.45"/>
  <!-- Ligne équateur plus marquée -->
  <line x1="6" y1="32" x2="58" y2="32" stroke="#FFFFFF" stroke-width="1.2" opacity="0.7"/>
</svg>
