<svg xmlns="http://www.w3.org/2000/svg" viewBox="0 0 64 64">
  <defs>
    <linearGradient id="a1" x1="0%" y1="0%" x2="100%" y2="100%">
      <stop offset="0%" style="stop-color:#C4521A"/>
      <stop offset="100%" style="stop-color:#D4A017"/>
    </linearGradient>
    <linearGradient id="a2" x1="0%" y1="0%" x2="100%" y2="100%">
      <stop offset="0%" style="stop-color:#8B2500"/>
      <stop offset="100%" style="stop-color:#C4521A"/>
    </linearGradient>
  </defs>
  <!-- Fond cercle doux -->
  <circle cx="32" cy="32" r="30" fill="url(#a1)" opacity="0.12"/>
  <!-- Livre ouvert moderne -->
  <rect x="10" y="16" width="20" height="28" rx="3" fill="url(#a2)"/>
  <rect x="34" y="16" width="20" height="28" rx="3" fill="url(#a1)"/>
  <!-- Reliure centrale -->
  <rect x="30" y="14" width="4" height="32" rx="2" fill="#FFD700"/>
  <!-- Lignes de texte gauche -->
  <rect x="14" y="23" width="12" height="2.5" rx="1.2" fill="rgba(255,255,255,0.7)"/>
  <rect x="14" y="28" width="10" height="2.5" rx="1.2" fill="rgba(255,255,255,0.7)"/>
  <rect x="14" y="33" width="12" height="2.5" rx="1.2" fill="rgba(255,255,255,0.7)"/>
  <rect x="14" y="38" width="8" height="2.5" rx="1.2" fill="rgba(255,255,255,0.7)"/>
  <!-- Lignes de texte droite -->
  <rect x="38" y="23" width="12" height="2.5" rx="1.2" fill="rgba(255,255,255,0.8)"/>
  <rect x="38" y="28" width="10" height="2.5" rx="1.2" fill="rgba(255,255,255,0.8)"/>
  <rect x="38" y="33" width="12" height="2.5" rx="1.2" fill="rgba(255,255,255,0.8)"/>
  <!-- Étoile décorative -->
  <circle cx="48" cy="18" r="7.5" fill="url(#a2)"/>
  <path d="M48 13.5 L49 16.5 L52 16.5 L49.6 18.4 L50.5 21.5 L48 19.6 L45.5 21.5 L46.4 18.4 L44 16.5 L47 16.5 Z" fill="#FFD700"/>
</svg>
