<svg xmlns="http://www.w3.org/2000/svg" viewBox="0 0 64 64">
  <defs>
    <linearGradient id="p1" x1="0%" y1="0%" x2="100%" y2="100%">
      <stop offset="0%" style="stop-color:#C4521A"/>
      <stop offset="100%" style="stop-color:#D4A017"/>
    </linearGradient>
    <linearGradient id="p2" x1="0%" y1="0%" x2="100%" y2="100%">
      <stop offset="0%" style="stop-color:#8B2500"/>
      <stop offset="100%" style="stop-color:#C4521A"/>
    </linearGradient>
  </defs>
  <!-- Fond cercle doux -->
  <circle cx="32" cy="32" r="30" fill="url(#p1)" opacity="0.12"/>
  <!-- Avatar silhouette moderne -->
  <!-- Tête -->
  <circle cx="32" cy="21" r="11" fill="url(#p1)"/>
  <circle cx="32" cy="21" r="8.5" fill="#FFF3E0"/>
  <!-- Corps / buste -->
  <path d="M14 52 C14 40 22 34 32 34 C42 34 50 40 50 52 Z" fill="url(#p1)"/>
  <!-- Détail visage - yeux -->
  <circle cx="28.5" cy="20" r="1.8" fill="#8B2500"/>
  <circle cx="35.5" cy="20" r="1.8" fill="#8B2500"/>
  <!-- Détail visage - sourire -->
  <path d="M28 25 Q32 28 36 25" stroke="#C4521A" stroke-width="1.5" fill="none" stroke-linecap="round"/>
  <!-- Badge abonnement coin -->
  <circle cx="46" cy="18" r="8" fill="url(#p2)"/>
  <path d="M46 14 L47.2 17.2 L50.5 17.2 L47.8 19.2 L48.8 22.5 L46 20.5 L43.2 22.5 L44.2 19.2 L41.5 17.2 L44.8 17.2 Z" fill="#FFD700"/>
</svg>
