<svg xmlns="http://www.w3.org/2000/svg" viewBox="0 0 64 64">
  <defs>
    <linearGradient id="tg1" x1="0%" y1="0%" x2="100%" y2="100%">
      <stop offset="0%" style="stop-color:#FFD700"/>
      <stop offset="50%" style="stop-color:#FFA500"/>
      <stop offset="100%" style="stop-color:#FF6B35"/>
    </linearGradient>
    <linearGradient id="tg2" x1="0%" y1="0%" x2="0%" y2="100%">
      <stop offset="0%" style="stop-color:#FFF176"/>
      <stop offset="100%" style="stop-color:#FFD700"/>
    </linearGradient>
  </defs>
  <path d="M20,8 L44,8 L44,36 C44,46 32,52 32,52 C32,52 20,46 20,36 Z" fill="url(#tg1)"/>
  <path d="M8,10 L20,10 L20,30 C15,28 10,22 8,16 Z" fill="#FFB300"/>
  <path d="M56,10 L44,10 L44,30 C49,28 54,22 56,16 Z" fill="#FFB300"/>
  <rect x="26" y="52" width="12" height="6" rx="2" fill="#8B6914"/>
  <rect x="20" y="56" width="24" height="4" rx="2" fill="#6D4C41"/>
  <polygon points="32,18 34,24 40,24 35,28 37,34 32,30 27,34 29,28 24,24 30,24" fill="#FFF176" opacity="0.9"/>
</svg>
