<svg xmlns="http://www.w3.org/2000/svg" viewBox="0 0 64 64">
  <defs>
    <linearGradient id="hyd1" x1="0%" y1="0%" x2="100%" y2="100%">
      <stop offset="0%" stop-color="#0284C7"/>
      <stop offset="100%" stop-color="#0EA5E9"/>
    </linearGradient>
    <linearGradient id="hyd2" x1="0%" y1="0%" x2="0%" y2="100%">
      <stop offset="0%" stop-color="#BAE6FD"/>
      <stop offset="100%" stop-color="#0EA5E9"/>
    </linearGradient>
  </defs>
  <!-- Goutte d'eau principale -->
  <path d="M32 6 Q48 26 48 38 A16 16 0 0 1 16 38 Q16 26 32 6Z" fill="url(#hyd1)"/>
  <!-- Reflet -->
  <path d="M32 14 Q40 26 40 34 A8 10 0 0 1 24 34 Q24 26 32 14Z" fill="url(#hyd2)" opacity="0.5"/>
  <!-- Vagues en bas -->
  <path d="M6 54 Q16 50 26 54 Q36 58 46 54 Q56 50 60 54" fill="none" stroke="#0369A1" stroke-width="2.5" stroke-linecap="round"/>
  <path d="M4 58 Q14 54 24 58 Q34 62 44 58 Q54 54 60 58" fill="none" stroke="#0369A1" stroke-width="2" stroke-linecap="round" opacity="0.6"/>
</svg>
