<svg xmlns="http://www.w3.org/2000/svg" viewBox="0 0 64 64">
  <defs>
    <linearGradient id="news1" x1="0%" y1="0%" x2="100%" y2="100%">
      <stop offset="0%" stop-color="#0EA5E9"/>
      <stop offset="100%" stop-color="#0369A1"/>
    </linearGradient>
    <linearGradient id="news2" x1="0%" y1="0%" x2="100%" y2="100%">
      <stop offset="0%" stop-color="#7DD3FC"/>
      <stop offset="100%" stop-color="#38BDF8"/>
    </linearGradient>
  </defs>
  <!-- Page arrière -->
  <rect x="10" y="10" width="46" height="46" rx="4" fill="url(#news2)" opacity="0.55"/>
  <!-- Page principale -->
  <rect x="6" y="8" width="48" height="48" rx="4" fill="url(#news1)"/>
  <!-- Pliure -->
  <rect x="6" y="8" width="48" height="6" rx="2" fill="#0369A1" opacity="0.7"/>
  <!-- Titre principal -->
  <rect x="10" y="18" width="40" height="6" rx="1.5" fill="#FFF" opacity="0.95"/>
  <!-- Image / vignette -->
  <rect x="10" y="28" width="18" height="14" rx="2" fill="#FFF" opacity="0.92"/>
  <circle cx="16" cy="34" r="2.5" fill="#FBBF24"/>
  <path d="M11,38 L16,33 L20,37 L27,32 L27,42 L11,42 Z" fill="#0EA5E9" opacity="0.6"/>
  <!-- Lignes de texte droite -->
  <rect x="32" y="28" width="18" height="2.5" rx="1" fill="#FFF" opacity="0.85"/>
  <rect x="32" y="33" width="18" height="2.5" rx="1" fill="#FFF" opacity="0.7"/>
  <rect x="32" y="38" width="14" height="2.5" rx="1" fill="#FFF" opacity="0.7"/>
  <!-- Lignes de texte bas -->
  <rect x="10" y="46" width="40" height="2.5" rx="1" fill="#FFF" opacity="0.7"/>
  <rect x="10" y="51" width="30" height="2.5" rx="1" fill="#FFF" opacity="0.55"/>
  <!-- Globe (actualités) -->
  <circle cx="48" cy="14" r="3" fill="#FBBF24"/>
</svg>
