<svg xmlns="http://www.w3.org/2000/svg" viewBox="0 0 64 64">
  <defs>
    <linearGradient id="pt1" x1="0%" y1="0%" x2="100%" y2="100%"><stop offset="0%" stop-color="#1A237E"/><stop offset="100%" stop-color="#7986CB"/></linearGradient>
  </defs>
  <circle cx="32" cy="32" r="28" fill="#E8EAF6"/>
  <circle cx="32" cy="32" r="22" fill="#C5CAE9"/>
  <circle cx="32" cy="32" r="16" fill="#9FA8DA"/>
  <circle cx="32" cy="32" r="10" fill="url(#pt1)"/>
  <circle cx="32" cy="32" r="5" fill="#1A237E"/>
  <line x1="32" y1="4" x2="32" y2="16" stroke="#1A237E" stroke-width="2.5" stroke-linecap="round"/>
  <line x1="32" y1="48" x2="32" y2="60" stroke="#1A237E" stroke-width="2.5" stroke-linecap="round"/>
  <line x1="4" y1="32" x2="16" y2="32" stroke="#1A237E" stroke-width="2.5" stroke-linecap="round"/>
  <line x1="48" y1="32" x2="60" y2="32" stroke="#1A237E" stroke-width="2.5" stroke-linecap="round"/>
  <line x1="48" y1="16" x2="36" y2="28" stroke="#FF6F00" stroke-width="3" stroke-linecap="round"/>
  <polygon points="52,8 58,14 50,16 46,12" fill="#FF6F00"/>
  <polygon points="32,22 34,28 40,28 35,32 37,38 32,34 27,38 29,32 24,28 30,28" fill="#FFD700" transform="scale(0.6) translate(21,21)"/>
</svg>
