<svg xmlns="http://www.w3.org/2000/svg" viewBox="0 0 64 64">
  <defs>
    <linearGradient id="pob1" x1="0%" y1="0%" x2="100%" y2="100%">
      <stop offset="0%" stop-color="#0EA5E9"/>
      <stop offset="100%" stop-color="#0369A1"/>
    </linearGradient>
  </defs>
  <!-- Page gauche -->
  <path d="M6,16 C6,14 8,14 10,14 L30,14 C31,14 32,15 32,16 L32,52 C32,53 31,54 30,54 L10,54 C8,54 6,52 6,50 Z" fill="#FFF"/>
  <path d="M6,16 C6,14 8,14 10,14 L30,14 C31,14 32,15 32,16 L32,52 C32,53 31,54 30,54 L10,54 C8,54 6,52 6,50 Z" fill="none" stroke="url(#pob1)" stroke-width="2"/>
  <!-- Page droite -->
  <path d="M58,16 C58,14 56,14 54,14 L34,14 C33,14 32,15 32,16 L32,52 C32,53 33,54 34,54 L54,54 C56,54 58,52 58,50 Z" fill="#FFF"/>
  <path d="M58,16 C58,14 56,14 54,14 L34,14 C33,14 32,15 32,16 L32,52 C32,53 33,54 34,54 L54,54 C56,54 58,52 58,50 Z" fill="none" stroke="url(#pob1)" stroke-width="2"/>
  <!-- Reliure centrale -->
  <rect x="30" y="14" width="4" height="40" fill="url(#pob1)"/>
  <!-- Lignes texte gauche -->
  <rect x="10" y="22" width="18" height="2" rx="1" fill="#0EA5E9" opacity="0.6"/>
  <rect x="10" y="28" width="18" height="2" rx="1" fill="#0EA5E9" opacity="0.5"/>
  <rect x="10" y="34" width="14" height="2" rx="1" fill="#0EA5E9" opacity="0.5"/>
  <rect x="10" y="40" width="18" height="2" rx="1" fill="#0EA5E9" opacity="0.5"/>
  <!-- Lignes texte droite -->
  <rect x="36" y="22" width="18" height="2" rx="1" fill="#0EA5E9" opacity="0.6"/>
  <rect x="36" y="28" width="18" height="2" rx="1" fill="#0EA5E9" opacity="0.5"/>
  <rect x="36" y="34" width="14" height="2" rx="1" fill="#0EA5E9" opacity="0.5"/>
  <rect x="36" y="40" width="18" height="2" rx="1" fill="#0EA5E9" opacity="0.5"/>
  <!-- Marque-page -->
  <path d="M48,14 L52,14 L52,24 L50,22 L48,24 Z" fill="#FBBF24"/>
</svg>
