<svg xmlns="http://www.w3.org/2000/svg" viewBox="0 0 64 64">
  <defs>
    <linearGradient id="ps1" x1="0%" y1="0%" x2="100%" y2="100%">
      <stop offset="0%" stop-color="#0EA5E9"/>
      <stop offset="100%" stop-color="#0369A1"/>
    </linearGradient>
  </defs>
  <!-- Toit -->
  <path d="M6,28 L32,10 L58,28 Z" fill="url(#ps1)"/>
  <!-- Bâtiment -->
  <rect x="12" y="28" width="40" height="26" rx="3" fill="url(#ps1)"/>
  <!-- Porte -->
  <rect x="27" y="38" width="10" height="16" rx="1" fill="#FFF" opacity="0.95"/>
  <circle cx="35" cy="46" r="0.8" fill="#0369A1"/>
  <!-- Fenêtres -->
  <rect x="16" y="34" width="8" height="8" rx="1" fill="#FFF" opacity="0.85"/>
  <rect x="40" y="34" width="8" height="8" rx="1" fill="#FFF" opacity="0.85"/>
  <line x1="20" y1="34" x2="20" y2="42" stroke="#0369A1" stroke-width="0.8"/>
  <line x1="16" y1="38" x2="24" y2="38" stroke="#0369A1" stroke-width="0.8"/>
  <line x1="44" y1="34" x2="44" y2="42" stroke="#0369A1" stroke-width="0.8"/>
  <line x1="40" y1="38" x2="48" y2="38" stroke="#0369A1" stroke-width="0.8"/>
  <!-- Drapeau -->
  <rect x="31" y="6" width="2" height="8" fill="#FBBF24"/>
  <path d="M33,6 L40,8 L33,10 Z" fill="#FBBF24"/>
  <!-- Marches -->
  <rect x="22" y="54" width="20" height="3" rx="1" fill="#0369A1" opacity="0.7"/>
</svg>
