<svg xmlns="http://www.w3.org/2000/svg" viewBox="0 0 64 64">
  <defs>
    <linearGradient id="ppe1" x1="0%" y1="0%" x2="100%" y2="100%">
      <stop offset="0%" stop-color="#38BDF8"/>
      <stop offset="100%" stop-color="#0369A1"/>
    </linearGradient>
  </defs>
  <!-- Corps du crayon -->
  <rect x="6" y="28" width="42" height="10" rx="2" fill="url(#ppe1)" transform="rotate(-30,27,33)"/>
  <!-- Pointe -->
  <polygon points="48,18 56,14 52,22" fill="#0369A1" transform="rotate(-30,52,18)"/>
  <polygon points="50,17 54,15 52,19" fill="#FBBF24" transform="rotate(-30,52,17)"/>
  <!-- Gomme -->
  <rect x="6" y="28" width="8" height="10" rx="2" fill="#FBBF24" transform="rotate(-30,10,33)"/>
  <!-- Lignes décoratives -->
  <rect x="14" y="29" width="2" height="8" fill="#075985" opacity="0.8" transform="rotate(-30,15,33)"/>
  <rect x="40" y="29" width="2" height="8" fill="#FFF" opacity="0.5" transform="rotate(-30,41,33)"/>
  <!-- Trait dessiné -->
  <path d="M10,52 Q24,48 38,50 T56,52" stroke="#0EA5E9" stroke-width="2" fill="none" stroke-linecap="round"/>
</svg>
