<svg xmlns="http://www.w3.org/2000/svg" viewBox="0 0 64 64">
  <defs>
    <linearGradient id="phl1" x1="0%" y1="0%" x2="100%" y2="100%">
      <stop offset="0%" stop-color="#0EA5E9"/>
      <stop offset="100%" stop-color="#155E75"/>
    </linearGradient>
  </defs>
  <!-- Cœur médical -->
  <path d="M32,54 C16,42 8,32 8,22 C8,14 14,8 22,8 C26,8 30,11 32,15 C34,11 38,8 42,8 C50,8 56,14 56,22 C56,32 48,42 32,54 Z" fill="url(#phl1)"/>
  <!-- Croix blanche centrale -->
  <rect x="28" y="20" width="8" height="20" rx="1" fill="#FFF"/>
  <rect x="22" y="26" width="20" height="8" rx="1" fill="#FFF"/>
  <!-- Reflet -->
  <path d="M22,12 C18,12 14,16 14,20 C14,18 16,14 20,12" fill="#FFF" opacity="0.4"/>
</svg>
