<svg xmlns="http://www.w3.org/2000/svg" viewBox="0 0 64 64">
  <defs>
    <linearGradient id="pc1" x1="0%" y1="0%" x2="100%" y2="100%">
      <stop offset="0%" stop-color="#0EA5E9"/>
      <stop offset="100%" stop-color="#0E7490"/>
    </linearGradient>
  </defs>
  <!-- Planche -->
  <rect x="10" y="10" width="44" height="50" rx="4" fill="url(#pc1)"/>
  <!-- Page -->
  <rect x="14" y="16" width="36" height="40" rx="2" fill="#FFF" opacity="0.96"/>
  <!-- Pince -->
  <rect x="24" y="6" width="16" height="10" rx="2" fill="#075985"/>
  <rect x="27" y="4" width="10" height="6" rx="1.5" fill="#0369A1"/>
  <!-- Lignes texte -->
  <rect x="18" y="22" width="20" height="3" rx="1" fill="#0EA5E9"/>
  <rect x="18" y="28" width="28" height="2.5" rx="1" fill="#0EA5E9" opacity="0.6"/>
  <rect x="18" y="33" width="28" height="2.5" rx="1" fill="#0EA5E9" opacity="0.6"/>
  <rect x="18" y="38" width="22" height="2.5" rx="1" fill="#0EA5E9" opacity="0.6"/>
  <!-- Cases à cocher -->
  <rect x="18" y="43" width="3" height="3" rx="0.5" fill="none" stroke="#0EA5E9" stroke-width="1"/>
  <path d="M18.5,44.5 L20,46 L21.5,43.5" stroke="#FBBF24" stroke-width="1.2" fill="none"/>
  <rect x="22" y="43" width="20" height="2.5" rx="1" fill="#0EA5E9" opacity="0.6"/>
  <rect x="18" y="48" width="3" height="3" rx="0.5" fill="none" stroke="#0EA5E9" stroke-width="1"/>
  <rect x="22" y="48" width="20" height="2.5" rx="1" fill="#0EA5E9" opacity="0.6"/>
</svg>
