<svg xmlns="http://www.w3.org/2000/svg" viewBox="0 0 64 64">
  <defs>
    <linearGradient id="gr1" x1="0%" y1="0%" x2="100%" y2="100%"><stop offset="0%" stop-color="#BF360C"/><stop offset="100%" stop-color="#FFAB40"/></linearGradient>
    <linearGradient id="gr2" x1="0%" y1="0%" x2="100%" y2="100%"><stop offset="0%" stop-color="#E65100"/><stop offset="100%" stop-color="#FFD740"/></linearGradient>
  </defs>
  <polygon points="32,8 4,24 32,34 60,24" fill="url(#gr1)"/>
  <polygon points="32,8 4,24 32,28 60,24" fill="url(#gr2)" opacity="0.7"/>
  <path d="M16,28 L16,46 C22,52 42,52 48,46 L48,28" fill="url(#gr1)"/>
  <path d="M16,28 L16,46 C22,50 32,52 32,52 L32,28 Z" fill="url(#gr2)" opacity="0.5"/>
  <line x1="54" y1="24" x2="54" y2="44" stroke="#BF360C" stroke-width="3" stroke-linecap="round"/>
  <circle cx="54" cy="46" r="4" fill="#FF6F00"/>
  <circle cx="54" cy="46" r="2" fill="#FFD740"/>
  <circle cx="32" cy="24" r="4" fill="#FFF" opacity="0.6"/>
</svg>
