<svg xmlns="http://www.w3.org/2000/svg" viewBox="0 0 64 64">
  <defs>
    <linearGradient id="psh1" x1="0%" y1="0%" x2="100%" y2="100%">
      <stop offset="0%" stop-color="#0EA5E9"/>
      <stop offset="100%" stop-color="#075985"/>
    </linearGradient>
  </defs>
  <!-- Bouclier principal -->
  <path d="M32,6 L52,12 L52,32 C52,46 32,58 32,58 C32,58 12,46 12,32 L12,12 Z" fill="url(#psh1)"/>
  <!-- Reflet -->
  <path d="M32,8 L32,56 C32,56 14,46 14,32 L14,14 Z" fill="#FFF" opacity="0.18"/>
  <!-- Étoile centrale -->
  <path d="M32,18 L34.5,26 L42.5,26 L36,31 L38.5,39 L32,34 L25.5,39 L28,31 L21.5,26 L29.5,26 Z" fill="#FBBF24"/>
  <!-- Bordure intérieure -->
  <path d="M32,12 L46,16.5 L46,32 C46,42 32,52 32,52" fill="none" stroke="#FFF" stroke-width="1" opacity="0.4"/>
</svg>
